<svg width="141.802490" height="30.000000" viewBox="0 0 141.802 30" fill="none" xmlns="http://www.w3.org/2000/svg" xmlns:xlink="http://www.w3.org/1999/xlink">
	<desc>
			Created with Pixso.
	</desc>
	<defs>
		<clipPath id="clip452_2778">
			<rect id="gitlab-logo-svg-150px" width="141.802490" height="30.000000" fill="white" fill-opacity="0"/>
		</clipPath>
	</defs>
	<rect id="gitlab-logo-svg-150px" width="141.802490" height="30.000000" fill="#FFFFFF" fill-opacity="0"/>
	<g clip-path="url(#clip452_2778)">
		<path id="Vector" d="M57.3167 11.4258L61.9646 11.4258C61.1892 6.61328 56.9106 3.26172 51.3428 3.26172C44.7544 3.26172 39.8108 7.97852 39.8108 15.877C39.8108 23.6367 44.532 28.4473 51.4773 28.4473C57.7104 28.4473 62.1729 24.543 62.1729 18.2246L62.1729 15.2793L51.9568 15.2793L51.9568 18.75L57.7595 18.75C57.686 22.2461 55.2886 24.4609 51.502 24.4609C47.2866 24.4609 44.3975 21.3848 44.3975 15.8301C44.3975 10.3105 47.3354 7.24805 51.4038 7.24805C54.4399 7.24805 56.5168 8.82617 57.3167 11.4258Z" fill="#171321" fill-opacity="1.000000" fill-rule="nonzero"/>
		<path id="Vector" d="M65.2456 28.1113L69.6956 28.1113L69.6956 9.73438L65.2456 9.73438L65.2456 28.1113ZM67.49 6.81445C68.9038 6.81445 70.0586 5.75977 70.0586 4.4668C70.0586 3.17578 68.9038 2.10938 67.49 2.10938C66.0759 2.10938 64.9089 3.16211 64.9089 4.4668C64.9089 5.77344 66.0557 6.81445 67.4817 6.81445L67.49 6.81445Z" fill="#171321" fill-opacity="1.000000" fill-rule="nonzero"/>
		<path id="Vector" d="M83.0208 9.73438L79.2952 9.73438L79.2952 5.32031L74.8452 5.32031L74.8452 9.73438L72.1663 9.73438L72.1663 13.0859L74.8452 13.0859L74.8452 23.3105C74.8208 26.7695 77.4038 28.4766 80.7458 28.375C81.636 28.3574 82.5188 28.2129 83.3655 27.9434L82.6147 24.5547C82.1895 24.6621 81.7522 24.7188 81.313 24.7227C80.1929 24.7227 79.2952 24.3398 79.2952 22.5918L79.2952 13.0762L83.0208 13.0762L83.0208 9.73438Z" fill="#171321" fill-opacity="1.000000" fill-rule="nonzero"/>
		<path id="Vector" d="M86.4648 28.1113L102.114 28.1113L102.114 24.3887L91.0271 24.3887L91.0271 3.5957L86.4648 3.5957L86.4648 28.1113Z" fill="#171321" fill-opacity="1.000000" fill-rule="nonzero"/>
		<path id="Vector" d="M110.638 28.4844C113.601 28.4844 115.37 27.1309 116.182 25.5879L116.329 25.5879L116.329 28.1113L120.614 28.1113L120.614 15.8066C120.614 10.9473 116.545 9.48633 112.942 9.48633C108.971 9.48633 105.923 11.209 104.94 14.5605L109.096 15.1367C109.537 13.8789 110.792 12.8027 112.973 12.8027C115.04 12.8027 116.17 13.832 116.17 15.6387L116.17 15.7109C116.17 16.9551 114.829 17.0156 111.498 17.3613C107.835 17.7461 104.332 18.8105 104.332 22.9531C104.32 26.5684 107.035 28.4844 110.638 28.4844ZM112.101 25.3047C110.245 25.3047 108.917 24.4785 108.917 22.8867C108.917 21.2227 110.404 20.5293 112.385 20.252C113.554 20.0977 115.89 19.8086 116.466 19.3574L116.466 21.5215C116.478 23.5625 114.78 25.2988 112.101 25.2988L112.101 25.3047Z" fill="#171321" fill-opacity="1.000000" fill-rule="nonzero"/>
		<path id="Vector" d="M123.89 28.1113L128.267 28.1113L128.267 25.2148L128.524 25.2148C129.226 26.5566 130.689 28.4355 133.935 28.4355C138.385 28.4355 141.717 24.998 141.717 18.9434C141.717 12.8145 138.287 9.48633 133.923 9.48633C130.591 9.48633 129.201 11.4375 128.524 12.7656L128.336 12.7656L128.336 3.5957L123.89 3.5957L123.89 28.1113ZM128.255 18.9199C128.255 15.3438 129.828 13.041 132.692 13.041C135.655 13.041 137.181 15.4941 137.181 18.9199C137.181 22.3438 135.632 24.8789 132.692 24.8789C129.852 24.8789 128.255 22.4863 128.255 18.9199Z" fill="#171321" fill-opacity="1.000000" fill-rule="nonzero"/>
		<path id="Vector" d="M31.4209 11.9961L31.3782 11.8848L27.0525 0.896484C26.9651 0.681641 26.8091 0.498047 26.6077 0.375C26.4575 0.28125 26.2866 0.222656 26.1091 0.205078C25.9316 0.1875 25.7522 0.210938 25.5854 0.271484C25.4187 0.333984 25.2688 0.433594 25.1484 0.560547C25.0281 0.689453 24.9402 0.84375 24.8918 1.00977L21.9722 9.71484L10.1484 9.71484L7.22876 1.00977C7.18018 0.84375 7.09204 0.689453 6.97144 0.5625C6.85107 0.433594 6.70142 0.335938 6.53467 0.273438C6.36792 0.210938 6.18896 0.1875 6.01147 0.207031C5.83398 0.224609 5.66333 0.28125 5.51294 0.375C5.31152 0.498047 5.15552 0.681641 5.06812 0.896484L0.744629 11.8867L0.699707 11.9961C0.0773926 13.5801 0.000488281 15.3184 0.481201 16.9473C0.961914 18.5781 1.97388 20.0117 3.3645 21.0332L3.38062 21.0449L3.41748 21.0723L9.99756 25.875L13.262 28.2773L15.2451 29.7363C15.4778 29.9082 15.7615 30 16.0532 30C16.3447 30 16.6284 29.9082 16.8611 29.7363L18.8442 28.2773L22.1089 25.875L28.7358 21.0449L28.7542 21.0312C30.1448 20.0098 31.1567 18.5762 31.6377 16.9473C32.1187 15.3164 32.0425 13.5801 31.4209 11.9961Z" fill="#E24329" fill-opacity="1.000000" fill-rule="nonzero"/>
		<path id="Vector" d="M31.4209 11.9941L31.3782 11.8828C29.2705 12.3047 27.2847 13.1738 25.5632 14.4297L16.0654 21.4238L22.113 25.873L28.74 21.043L28.7583 21.0293C30.1482 20.0078 31.1594 18.5742 31.6396 16.9453C32.1196 15.3145 32.043 13.5781 31.4209 11.9941Z" fill="#FC6D26" fill-opacity="1.000000" fill-rule="nonzero"/>
		<path id="Vector" d="M9.99756 25.875L13.262 28.2754L15.2454 29.7363C15.478 29.9082 15.7617 30 16.0532 30C16.345 30 16.6284 29.9082 16.8613 29.7363L18.8445 28.2754L22.1089 25.875L16.0613 21.4238L9.99756 25.875Z" fill="#FCA326" fill-opacity="1.000000" fill-rule="nonzero"/>
		<path id="Vector" d="M6.55762 14.4297C4.83643 13.1738 2.85132 12.3047 0.744629 11.8848L0.699707 11.9941C0.0773926 13.5781 0.000488281 15.3164 0.481201 16.9473C0.961914 18.5762 1.97388 20.0098 3.3645 21.0312L3.38062 21.043L3.41748 21.0723L9.99756 25.873L16.0491 21.4238L6.55762 14.4297Z" fill="#FC6D26" fill-opacity="1.000000" fill-rule="nonzero"/>
	</g>
</svg>
