<svg width="26.000244" height="32.500977" viewBox="0 0 26.0002 32.501" fill="none" xmlns="http://www.w3.org/2000/svg" xmlns:xlink="http://www.w3.org/1999/xlink">
	<desc>
			Created with Pixso.
	</desc>
	<defs/>
	<rect id="Rectangle 332" y="4.333984" width="26.000000" height="22.750000" fill="#FF3C78" fill-opacity="1.000000"/>
	<rect id="Rectangle 333" width="26.000000" height="2.166667" fill="#FF3C78" fill-opacity="1.000000"/>
	<rect id="Rectangle 334" x="11.916992" y="8.666016" width="14.083334" height="4.333333" fill="#FFFFFF" fill-opacity="1.000000"/>
	<rect id="Rectangle 335" x="11.916992" y="15.166016" width="14.083334" height="2.166667" fill="#FFFFFF" fill-opacity="1.000000"/>
	<rect id="Rectangle 336" x="14.083008" y="27.083984" width="5.416667" height="2.166666" transform="rotate(90 14.083008 27.083984)" fill="#FF3C78" fill-opacity="1.000000"/>
	<path id="Ellipse 1518" d="M9.75024 13.542C9.75024 14.4355 9.44043 15.2568 8.92236 15.9053C8.36597 16.6045 7.61133 17.0537 6.802 17.2373C5.9314 17.4375 5.06128 17.3174 4.31372 16.957C3.50854 16.5703 2.90259 15.9346 2.54321 15.1865C2.15479 14.3818 2.07739 13.5068 2.26294 12.6982C2.46094 11.8271 2.9458 11.0947 3.59521 10.5781C4.29321 10.0205 5.12891 9.75 5.95874 9.75L5.95874 12.2236C5.64819 12.2236 5.36255 12.332 5.13721 12.5117C4.89429 12.7051 4.73828 12.9678 4.67432 13.249C4.60498 13.5508 4.64648 13.8535 4.77173 14.1133C4.90625 14.3936 5.1272 14.6035 5.38721 14.7285C5.66675 14.8633 5.9707 14.8906 6.25195 14.8262C6.55444 14.7568 6.80908 14.5889 6.98877 14.3633C7.18237 14.1201 7.27637 13.8301 7.27637 13.542L9.75024 13.542Z" fill="#FFFFFF" fill-opacity="1.000000" fill-rule="evenodd"/>
</svg>
