<svg width="166.100098" height="30.000000" viewBox="0 0 166.1 30" fill="none" xmlns="http://www.w3.org/2000/svg" xmlns:xlink="http://www.w3.org/1999/xlink">
	<desc>
			Created with Pixso.
	</desc>
	<defs>
		<clipPath id="clip452_2780">
			<rect id="lattice-logo-svg-150px" width="166.100067" height="30.000000" fill="white" fill-opacity="0"/>
		</clipPath>
	</defs>
	<rect id="lattice-logo-svg-150px" width="166.100067" height="30.000000" fill="#FFFFFF" fill-opacity="0"/>
	<g clip-path="url(#clip452_2780)">
		<path id="Vector" d="M12.8303 21.4199L5.46851 14.2188C4.21753 12.9941 2.18945 12.9941 0.938232 14.2188C-0.312744 15.4414 -0.312744 17.4258 0.938232 18.6504L10.5652 28.0664C11.8159 29.291 13.8445 29.291 15.0955 28.0664L24.1565 19.2031L19.6267 14.7715L12.8303 21.4199Z" fill="#810C30" fill-opacity="1.000000" fill-rule="evenodd"/>
		<path id="Vector" d="M40.5786 7.57227L26.4226 21.4199L12.2649 7.57031C11.0137 6.3457 8.9856 6.3457 7.73462 7.57031C6.48364 8.79492 6.48364 10.7773 7.73462 12.002L24.1572 28.0664C25.4082 29.291 27.4365 29.291 28.6877 28.0664L45.1089 12.0039C46.3599 10.7793 46.3599 8.79492 45.1089 7.57227C43.8577 6.34766 41.8293 6.34766 40.5786 7.57227Z" fill="#FFB41F" fill-opacity="1.000000" fill-rule="evenodd"/>
		<path id="Vector" d="M51.9043 18.6523L42.2791 28.0684C41.0283 29.293 39 29.293 37.749 28.0684L14.53 5.35547C13.2791 4.13086 13.2791 2.14844 14.53 0.923828C15.7812 -0.300781 17.8093 -0.300781 19.0603 0.923828L40.0139 21.4199L47.374 14.2207C48.6252 12.998 50.6533 12.998 51.9043 14.2207C53.1553 15.4453 53.1553 17.4297 51.9043 18.6523Z" fill="#F56358" fill-opacity="1.000000" fill-rule="evenodd"/>
		<path id="Vector" d="M38.3127 0.925781C37.0618 -0.298828 35.0337 -0.298828 33.7822 0.925781L19.6265 14.7734L24.1565 19.2051L38.3127 5.35742C39.5637 4.13281 39.5637 2.14844 38.3127 0.925781Z" fill="#810C30" fill-opacity="1.000000" fill-rule="evenodd"/>
		<path id="Vector" d="M69.4263 3.08789L65.4871 3.08789L65.4871 25.7246L79.9207 25.7246L79.9207 22.3047L69.4263 22.3047L69.4263 3.08789ZM88.4463 9.89453C90.8416 9.89453 92.4485 10.8496 93.3311 12.0195L93.52 10.2031L96.9236 10.2031L96.9236 25.7246L93.52 25.7246L93.3311 23.9062C92.4485 25.0781 90.8416 26.0312 88.4463 26.0312C84.1287 26.0312 81.198 22.6133 81.198 17.9629C81.198 13.2812 84.1287 9.89453 88.4463 9.89453ZM89.2656 13.1582C86.8074 13.1582 85.0427 15.0371 85.0427 17.9629C85.0427 20.8887 86.8074 22.7676 89.2656 22.7676C91.1565 22.7676 92.291 21.7812 93.1418 20.457L93.1418 15.4688C92.291 14.1445 91.1565 13.1582 89.2656 13.1582ZM106.458 4.99805L102.676 4.99805L102.676 10.2031L99.6821 10.2031L99.6821 13.3438L102.676 13.3438L102.676 20.2422C102.676 24 104.977 26.0312 108.601 26.0312C110.177 26.0312 111.343 25.6016 112.13 25.1074L111.122 22.2129C110.649 22.4902 109.956 22.7051 108.948 22.7051C107.466 22.7051 106.458 21.7812 106.458 20.2109L106.458 13.3438L111.248 13.3438L111.248 10.2031L106.458 10.2031L106.458 4.99805ZM119.49 4.99805L115.708 4.99805L115.708 10.2031L112.714 10.2031L112.714 13.3438L115.708 13.3438L115.708 20.2422C115.708 24 118.009 26.0312 121.633 26.0312C123.208 26.0312 124.375 25.6016 125.163 25.1074L124.154 22.2129C123.681 22.4902 122.988 22.7051 121.979 22.7051C120.498 22.7051 119.49 21.7812 119.49 20.2109L119.49 13.3438L124.28 13.3438L124.28 10.2031L119.49 10.2031L119.49 4.99805ZM131.482 10.2031L127.7 10.2031L127.7 25.7246L131.482 25.7246L131.482 10.2031ZM129.591 2.96484C128.268 2.96484 127.259 3.91992 127.259 5.24414C127.259 6.56836 128.268 7.52344 129.591 7.52344C130.947 7.52344 131.955 6.56836 131.955 5.24414C131.955 3.91992 130.947 2.96484 129.591 2.96484ZM142.907 9.89453C138.022 9.89453 134.777 13.2812 134.777 17.9629C134.777 22.6133 138.054 26.0312 142.938 26.0312C145.806 26.0312 147.98 24.7695 149.399 22.6133L146.689 20.5508C145.932 21.7812 144.704 22.7988 142.97 22.7988C140.166 22.7988 138.621 20.6738 138.621 17.9629C138.621 15.2227 140.103 13.1289 142.938 13.1289C144.704 13.1289 145.869 14.1133 146.594 15.3457L149.336 13.3125C147.917 11.1562 145.806 9.89453 142.907 9.89453ZM158.649 9.89453C163.535 9.89453 165.93 13.4668 165.93 17.8086L165.93 19.1016L154.71 19.1016C154.805 21.5664 156.317 22.9219 158.964 22.9219C160.823 22.9219 162.179 22.1211 162.904 21.1348L165.52 23.2285C163.943 25.0781 161.864 26.0312 158.934 26.0312C154.018 26.0312 150.865 22.6445 150.865 17.9941C150.865 13.3125 154.08 9.89453 158.649 9.89453ZM158.587 12.8516C156.35 12.8516 154.836 14.2988 154.71 16.4531L162.211 16.4531C162.116 14.3281 160.856 12.8516 158.587 12.8516Z" fill="#0E0E29" fill-opacity="1.000000" fill-rule="evenodd"/>
	</g>
</svg>
