<svg width="133.094482" height="30.000000" viewBox="0 0 133.094 30" fill="none" xmlns="http://www.w3.org/2000/svg" xmlns:xlink="http://www.w3.org/1999/xlink">
	<desc>
			Created with Pixso.
	</desc>
	<defs>
		<clipPath id="clip452_2777">
			<rect id="pendo-logo-svg-150px" width="133.094376" height="30.000000" fill="white" fill-opacity="0"/>
		</clipPath>
	</defs>
	<rect id="pendo-logo-svg-150px" width="133.094376" height="30.000000" fill="#FFFFFF" fill-opacity="0"/>
	<g clip-path="url(#clip452_2777)">
		<path id="Vector" d="M103.555 20.6875C106.986 20.6875 109.776 18.0254 109.776 14.752C109.776 11.4785 106.986 8.81641 103.555 8.81641C100.126 8.81641 97.3352 11.4785 97.3352 14.752C97.3352 18.0254 100.126 20.6875 103.555 20.6875ZM109.776 0L109.945 0L112.723 0L112.723 23.5195L109.776 23.5195L109.776 21.1719C108.075 22.6758 105.882 23.5 103.555 23.5C98.501 23.5 94.3887 19.5762 94.3887 14.752C94.3887 9.92773 98.501 6.00391 103.555 6.00391C105.882 6.00391 108.075 6.82812 109.776 8.33203L109.776 0ZM42.4409 20.584C45.8708 20.584 48.6611 17.9219 48.6611 14.6484C48.6611 11.375 45.8708 8.71289 42.4409 8.71289C39.011 8.71289 36.2205 11.375 36.2205 14.6484C36.2205 17.9219 39.011 20.584 42.4409 20.584ZM36.2205 8.22852C37.9214 6.72461 40.1147 5.90039 42.4409 5.90039C47.4956 5.90039 51.6082 9.82422 51.6082 14.6484C51.6082 19.4727 47.4956 23.3965 42.4409 23.3965C40.1147 23.3965 37.9214 22.5723 36.2205 21.0684L36.2205 29.4004L33.2737 29.4004L33.2737 5.88086L36.2205 5.88086L36.2205 8.22852ZM57.231 13.2832C57.894 10.625 60.3652 8.71484 63.1841 8.71484C65.9663 8.71484 68.2966 10.584 68.9177 13.2832L57.231 13.2832ZM63.1841 5.88086C58.2051 5.88086 54.1545 9.83594 54.1545 14.6992C54.1545 19.5625 58.2051 23.5195 63.1841 23.5195C65.9724 23.5195 68.5312 22.5 70.2061 20.7227L71.0762 19.7988L71.1882 19.6797L71.0664 19.5684L69.1746 17.8691L69.0527 17.7598L68.9399 17.8789L68.0698 18.8027C66.9602 19.9805 65.1338 20.6855 63.1841 20.6855C60.3652 20.6855 57.8943 18.7754 57.231 16.1172L71.9795 16.1172L71.9795 14.6992C71.9795 9.75391 68.116 5.88086 63.1841 5.88086ZM130.147 14.6992C130.147 18 127.357 20.6855 123.927 20.6855C120.497 20.6855 117.707 18 117.707 14.6992C117.707 11.4004 120.497 8.71484 123.927 8.71484C127.357 8.71484 130.147 11.4004 130.147 14.6992ZM123.927 5.88086C118.873 5.88086 114.76 9.83594 114.76 14.6992C114.76 19.5625 118.873 23.5195 123.927 23.5195C128.982 23.5195 133.094 19.5625 133.094 14.6992C133.094 9.83594 128.982 5.88086 123.927 5.88086ZM82.929 5.88086C80.8813 5.88086 78.9307 6.63867 77.395 8.02539L77.395 5.88086L74.5261 5.88086L74.5261 23.5195L77.395 23.5195L77.395 14.5176C77.395 11.3066 79.8777 8.69336 82.929 8.69336C85.981 8.69336 88.4641 11.3066 88.4641 14.5176L88.4641 23.5195L91.3325 23.5195L91.3325 14.5176C91.3325 9.75586 87.5627 5.88086 82.929 5.88086Z" fill="#1A2022" fill-opacity="1.000000" fill-rule="evenodd"/>
		<path id="Vector" d="M0 16.7988L13.864 16.7988L13.864 30L27.728 16.7988L27.728 3.59961L13.864 3.59961L0 16.7988Z" fill="#FF4876" fill-opacity="1.000000" fill-rule="evenodd"/>
	</g>
</svg>
