<svg width="149.745605" height="30.000000" viewBox="0 0 149.746 30" fill="none" xmlns="http://www.w3.org/2000/svg" xmlns:xlink="http://www.w3.org/1999/xlink">
	<desc>
			Created with Pixso.
	</desc>
	<defs>
		<clipPath id="clip452_2776">
			<rect id="pingdom-logo-svg-150px" width="149.745499" height="30.000000" fill="white" fill-opacity="0"/>
		</clipPath>
	</defs>
	<rect id="pingdom-logo-svg-150px" width="149.745499" height="30.000000" fill="#FFFFFF" fill-opacity="0"/>
	<g clip-path="url(#clip452_2776)">
		<path id="Shape1" d="M14.075 13.6387L14.3293 13.5703C16.2253 13.0156 18.0852 12.3516 19.8989 11.5801C21.7388 10.877 23.4651 9.91797 25.0247 8.73438C26.6804 7.45117 27.9268 5.73438 28.6174 3.78516C28.7664 3.46484 28.8755 3.12695 28.9429 2.78125C26.4512 6.09766 16.5725 6.44531 16.5725 6.44531L18.9045 4.36133C12.1179 4.38477 5.5083 6.47461 0 10.3398C3.73071 10.7285 7.23999 12.2578 10.0264 14.707C11.364 14.3027 12.7314 14.0137 14.075 13.6504L14.075 13.6387ZM29.5645 13.3105C23.2791 13.0254 16.991 13.8066 10.9792 15.6172C12.2422 16.9023 13.2959 18.3672 14.1045 19.9629C19.0823 17.2617 25.9834 13.8125 29.5645 13.3223L29.5645 13.3105ZM14.7319 21.3418C15.3223 22.8223 15.7007 24.375 15.8564 25.957L24.5393 17.2617L14.7319 21.3418ZM19.2893 25.6035L19.2893 25.5117C19.2878 25.4746 19.2756 25.4395 19.2539 25.4082C19.2341 25.3789 19.2007 25.3613 19.165 25.3613L19.2419 25.3613C19.2893 25.332 19.3162 25.2793 19.313 25.2227C19.3213 25.1484 19.2778 25.0781 19.2065 25.0508C19.146 25.0391 19.0835 25.0391 19.0229 25.0508L18.7803 25.0508L18.7803 25.7031L18.9106 25.7031L18.9106 25.4668L19.0051 25.4668C19.0461 25.457 19.0886 25.457 19.1296 25.4668C19.1699 25.498 19.1902 25.5488 19.1829 25.5977L19.1829 25.6973L19.313 25.6973L19.2893 25.6035ZM18.9045 25.0957L18.9875 25.0957C19.0322 25.0859 19.0789 25.0859 19.1235 25.0957C19.1497 25.1152 19.1633 25.1465 19.1592 25.1777C19.1643 25.2188 19.1396 25.2559 19.0999 25.2695C19.0647 25.2754 19.0288 25.2754 18.9934 25.2695L18.9045 25.2695L18.9045 25.0508L18.9045 25.0957Z" fill="#282828" fill-opacity="1.000000" fill-rule="evenodd"/>
		<path id="Shape2" d="M19.4492 24.9062C19.3374 24.7891 19.1809 24.7227 19.0171 24.7227C18.8535 24.7227 18.697 24.7891 18.5852 24.9062C18.4692 25.0156 18.405 25.168 18.4075 25.3262C18.405 25.4844 18.4692 25.6367 18.5852 25.748C18.697 25.8633 18.8535 25.9297 19.0171 25.9297C19.1809 25.9297 19.3374 25.8633 19.4492 25.748C19.5688 25.6387 19.6367 25.4863 19.6367 25.3262C19.6367 25.166 19.5688 25.0137 19.4492 24.9062ZM19.0171 25.8164C18.8835 25.8184 18.7549 25.7656 18.6621 25.6719C18.4695 25.4805 18.4695 25.1738 18.6621 24.9805C18.7556 24.8867 18.8835 24.834 19.0171 24.834C19.1509 24.834 19.2788 24.8867 19.3723 24.9805C19.5647 25.1738 19.5647 25.4805 19.3723 25.6719C19.2793 25.7656 19.1509 25.8184 19.0171 25.8164Z" fill="#282828" fill-opacity="1.000000" fill-rule="evenodd"/>
		<path id="Shape3" d="M82.3066 17.5566C80.8857 17.5566 79.5728 16.8164 78.8623 15.6172C78.1516 14.418 78.1516 12.9395 78.8623 11.7402C79.5728 10.541 80.8857 9.80273 82.3066 9.80273C84.5034 9.80273 86.2842 11.5391 86.2842 13.6797C86.2842 15.8203 84.5034 17.5566 82.3066 17.5566ZM82.3066 5.57422C78.8721 5.61328 75.8188 7.71484 74.6304 10.8555C73.4419 13.9961 74.3647 17.5273 76.9507 19.7305C79.5364 21.9336 83.249 22.3535 86.2842 20.7871L86.2842 21.7676C86.281 23.9082 84.502 25.6406 82.3066 25.6445C81.1104 25.6445 80.1404 26.5898 80.1404 27.7559C80.1404 28.9219 81.1104 29.8672 82.3066 29.8672C86.876 29.8516 90.5771 26.2441 90.593 21.791L90.593 13.7148C90.5771 9.25977 86.876 5.65234 82.3066 5.63672L82.3066 5.57422ZM41.3606 17.5566C39.1638 17.5586 37.3804 15.8262 37.3772 13.6855C37.374 11.543 39.1521 9.80469 41.3486 9.80273C43.5454 9.79883 45.3289 11.5332 45.332 13.6738C45.3352 15.8145 43.5571 17.5527 41.3606 17.5566ZM41.3606 5.57422C36.7913 5.58984 33.0901 9.19727 33.0742 13.6504L33.0742 25.1895C33.0742 25.9434 33.4871 26.6406 34.1575 27.0176C34.8276 27.3945 35.6533 27.3945 36.3237 27.0176C36.9939 26.6406 37.4067 25.9434 37.4067 25.1895L37.4067 20.7695C38.624 21.4199 39.9902 21.7598 41.3782 21.7559C45.9695 21.7559 49.6912 18.1289 49.6912 13.6543C49.6912 9.17773 45.9695 5.55078 41.3782 5.55078L41.3606 5.57422ZM64.6687 5.57422C60.0994 5.58984 56.3984 9.19727 56.3823 13.6504L56.3823 19.6387C56.3823 20.8047 57.3523 21.75 58.5488 21.75C59.7451 21.75 60.7151 20.8047 60.7151 19.6387L60.7151 13.6797C60.7151 11.541 62.4932 9.80859 64.6865 9.80859C66.8799 9.80859 68.658 11.541 68.658 13.6797L68.658 19.668C68.6162 20.4473 69.019 21.1855 69.7056 21.5879C70.3923 21.9902 71.2505 21.9902 71.937 21.5879C72.6235 21.1855 73.0266 20.4473 72.9846 19.668L72.9846 13.6797C72.9688 9.22461 69.2676 5.61719 64.6982 5.60156L64.6687 5.57422ZM117.594 17.4863C115.398 17.4902 113.615 15.7578 113.611 13.6152C113.608 11.4746 115.386 9.73633 117.583 9.73242C119.78 9.73047 121.563 11.4629 121.566 13.6035C121.569 15.7461 119.791 17.4844 117.594 17.4863ZM117.594 5.50391C113.018 5.50391 109.308 9.12109 109.308 13.582C109.308 18.041 113.018 21.6582 117.594 21.6582C122.171 21.6582 125.881 18.041 125.881 13.582C125.865 9.12695 122.164 5.51953 117.594 5.50391ZM99.9507 17.5566C97.7539 17.5566 95.9731 15.8203 95.9731 13.6797C95.9731 11.5391 97.7539 9.80273 99.9507 9.80273C102.147 9.80273 103.928 11.5391 103.928 13.6797C103.925 15.8184 102.146 17.5527 99.9507 17.5566ZM106.088 0.0351562C104.892 0.0351562 103.922 0.980469 103.922 2.14648L103.922 6.56641C100.646 4.82812 96.5837 5.43945 93.9961 8.05664C91.4082 10.6738 90.9329 14.6523 92.8347 17.7793C94.7366 20.9062 98.5469 22.4102 102.144 21.4531C105.742 20.4961 108.24 17.3145 108.249 13.6797L108.249 2.14062C108.249 0.974609 107.279 0.0292969 106.083 0.0292969L106.088 0.0351562ZM52.8608 5.57422C51.6643 5.57422 50.6946 6.51953 50.6946 7.68555L50.6946 19.6621C50.6946 20.8281 51.6643 21.7734 52.8608 21.7734C54.0571 21.7734 55.0271 20.8281 55.0271 19.6621L55.0271 7.69141C55.0271 6.52539 54.0571 5.58008 52.8608 5.58008L52.8608 5.57422ZM50.6946 2.14648C50.6946 3.3125 51.6643 4.25781 52.8608 4.25781C54.0571 4.25781 55.0271 3.3125 55.0271 2.14648C55.0271 0.980469 54.0571 0.0351562 52.8608 0.0351562C51.6643 0.0351562 50.6946 0.980469 50.6946 2.14648ZM138.299 21.7109C138.874 21.7109 139.426 21.4863 139.833 21.0898C140.239 20.6914 140.466 20.1543 140.465 19.5918L140.465 10.6152C140.465 10.1289 140.87 9.73242 141.37 9.73242C143.565 9.73633 145.342 11.4707 145.342 13.6094L145.342 19.5703C145.342 20.7363 146.312 21.6816 147.508 21.6816C148.705 21.6816 149.675 20.7363 149.675 19.5703L149.675 13.6094C149.658 9.15625 145.958 5.54883 141.388 5.5332C140.336 5.53125 139.292 5.72656 138.316 6.10938C137.34 5.72656 136.297 5.53125 135.244 5.5332C130.676 5.55273 126.978 9.1582 126.958 13.6094L126.958 19.5703C126.958 20.7363 127.928 21.6816 129.125 21.6816C130.321 21.6816 131.291 20.7363 131.291 19.5703L131.291 13.6094C131.291 11.4707 133.068 9.73633 135.262 9.73242C135.762 9.73242 136.168 10.1289 136.168 10.6152L136.168 19.5703C136.166 20.1309 136.394 20.6699 136.8 21.0664C137.207 21.4629 137.759 21.6875 138.334 21.6875L138.299 21.7109Z" fill="#282828" fill-opacity="1.000000" fill-rule="evenodd"/>
	</g>
</svg>
