<svg width="175.297607" height="30.000000" viewBox="0 0 175.298 30" fill="none" xmlns="http://www.w3.org/2000/svg" xmlns:xlink="http://www.w3.org/1999/xlink">
	<desc>
			Created with Pixso.
	</desc>
	<defs>
		<clipPath id="clip452_2779">
			<rect id="sendgrid-logo-svg-150px" width="175.297607" height="30.000000" fill="white" fill-opacity="0"/>
		</clipPath>
	</defs>
	<rect id="sendgrid-logo-svg-150px" width="175.297607" height="30.000000" fill="#FFFFFF" fill-opacity="0"/>
	<g clip-path="url(#clip452_2779)">
		<path id="Vector" d="M60.6401 19.1211C61.3682 17.5332 62.8948 16.4531 64.9072 16.4531C66.9197 16.4531 68.4114 17.3652 69.0359 19.1211L60.6401 19.1211ZM73.8235 21.1465C73.8235 16.2832 70.1804 12.4004 64.8726 12.4004C59.8765 12.4004 55.8521 16.3184 55.8521 21.1816C55.8521 26.043 59.5994 29.9609 65.0115 29.9609C68.7598 29.9609 71.4556 28.2012 72.9724 25.6777L69.2026 23.4902C68.4028 24.9844 66.8674 25.9082 65.0461 25.9082C62.5481 25.9082 60.9871 24.6934 60.4319 22.8359L73.8235 22.8359L73.8235 21.1465ZM170.587 21.1465C170.587 18.6484 168.714 16.6211 166.147 16.6211C163.51 16.6211 161.498 18.5469 161.498 21.1465C161.498 23.748 163.51 25.707 166.147 25.707C168.714 25.707 170.587 23.6465 170.587 21.1465ZM156.849 21.1816C156.849 15.2031 161.359 12.4004 165.279 12.4004C167.534 12.4004 169.304 13.2109 170.449 14.3926L170.449 4.9707L175.202 4.9707L175.202 29.623L170.449 29.623L170.449 27.7324C169.304 29.0488 167.465 29.9609 165.21 29.9609C161.532 29.9609 156.849 27.125 156.849 21.1816ZM153.357 10.168C154.928 10.168 156.201 8.92969 156.201 7.40039C156.201 5.87109 154.928 4.63281 153.357 4.63281C151.787 4.63281 150.515 5.87109 150.515 7.40039C150.515 8.92969 151.787 10.168 153.357 10.168ZM150.981 12.7383L155.734 12.7383L155.734 29.623L150.981 29.623L150.981 17.2305L149.256 17.2285L150.981 12.7383ZM138.319 12.7383L143.038 12.7383L143.038 15.5078C143.905 13.752 145.466 12.7383 147.825 12.7383L149.734 12.7383L148.01 17.2285L146.715 17.2285C144.183 17.2285 143.073 18.5137 143.073 21.6543L143.073 29.623L138.319 29.623L138.319 12.7383ZM111.581 17.2969C111.581 10.2734 117.028 4.63281 124.521 4.63281C128.27 4.63281 131.422 5.94727 133.704 8.04102C134.633 8.89258 135.417 9.87305 136.039 10.9473L131.807 13.4473C130.246 10.6445 127.852 9.19141 124.556 9.19141C119.942 9.19141 116.368 12.873 116.368 17.2969C116.368 21.8223 119.873 25.4023 124.729 25.4023C128.407 25.4023 131.009 23.375 131.911 20.2344L123.966 20.2344L123.966 15.7441L137.115 15.7441L137.115 17.6348C137.115 24.2539 132.258 29.9609 124.729 29.9609C116.819 29.9609 111.581 24.1191 111.581 17.2969ZM105.851 21.1465C105.851 18.6484 103.978 16.6211 101.411 16.6211C98.7739 16.6211 96.7615 18.5469 96.7615 21.1465C96.7615 23.748 98.7739 25.707 101.411 25.707C103.978 25.707 105.851 23.6465 105.851 21.1465ZM92.1128 21.1816C92.1128 15.2031 96.6226 12.4004 100.543 12.4004C102.798 12.4004 104.568 13.2109 105.713 14.3926L105.713 4.9707L110.466 4.9707L110.466 29.623L105.713 29.623L105.713 27.7324C104.568 29.0488 102.729 29.9609 100.474 29.9609C96.7964 29.9609 92.1128 27.125 92.1128 21.1816ZM74.9346 12.7383L79.6533 12.7383L79.6533 14.6289C80.7632 13.2441 82.4634 12.4004 84.4409 12.4004C88.5344 12.4004 90.9978 14.9668 90.9978 19.3223L90.9978 29.623L86.1753 29.623L86.1753 19.9316C86.1753 17.668 85.0999 16.3516 82.9839 16.3516C81.1794 16.3516 79.6877 17.5664 79.6877 20.4043L79.6877 29.623L74.9346 29.623L74.9346 12.7383ZM36.1267 25.5371L40.5332 22.1602C41.782 24.2539 43.7595 25.4688 46.0142 25.4688C48.478 25.4688 49.7964 23.916 49.7964 22.2266C49.7964 20.2012 47.2632 19.5605 44.5574 18.75C41.1577 17.7363 37.376 16.4531 37.376 11.7246C37.376 7.77344 40.915 4.63281 45.8064 4.63281C49.9351 4.63281 52.2942 6.15234 54.3411 8.21289L50.3511 11.1504C49.3105 9.63086 47.8188 8.82031 45.8408 8.82031C43.5859 8.82031 42.3721 10.002 42.3721 11.5566C42.3721 13.4473 44.8003 14.0898 47.5061 14.9668C50.9414 16.0469 54.8267 17.5332 54.8267 22.2617C54.8267 26.1797 51.6348 29.9609 46.0491 29.9609C41.47 29.9609 38.417 28.0703 36.1267 25.5371Z" fill="#212F38" fill-opacity="1.000000" fill-rule="evenodd"/>
		<path id="Vector" d="M10.1809 29.625L20.311 29.625L20.311 19.7637L10.1809 19.7637L10.1809 29.625Z" fill="#9DD6E3" fill-opacity="1.000000" fill-rule="evenodd"/>
		<path id="Vector" d="M0.0507812 19.7637L10.1809 19.7637L10.1809 9.90234L0.0507812 9.90234L0.0507812 19.7637Z" fill="#9DD6E3" fill-opacity="1.000000" fill-rule="evenodd"/>
		<path id="Vector" d="M0.0510254 29.625L10.1812 29.625L10.1812 19.7637L0.0510254 19.7637L0.0510254 29.625Z" fill="#3F72AB" fill-opacity="1.000000" fill-rule="evenodd"/>
		<path id="Vector" d="M20.3108 19.7637L30.4409 19.7637L30.4409 9.90234L20.3108 9.90234L20.3108 19.7637Z" fill="#00A9D1" fill-opacity="1.000000" fill-rule="evenodd"/>
		<path id="Vector" d="M10.1809 9.9043L20.311 9.9043L20.311 0.0429688L10.1809 0.0429688L10.1809 9.9043Z" fill="#00A9D1" fill-opacity="1.000000" fill-rule="evenodd"/>
		<path id="Vector" d="M10.1809 19.7637L20.311 19.7637L20.311 9.90234L10.1809 9.90234L10.1809 19.7637Z" fill="#2191C4" fill-opacity="1.000000" fill-rule="evenodd"/>
		<path id="Vector" d="M20.3108 9.9043L30.4409 9.9043L30.4409 0.0429688L20.3108 0.0429688L20.3108 9.9043Z" fill="#3F72AB" fill-opacity="1.000000" fill-rule="evenodd"/>
	</g>
</svg>
