<svg width="29.564453" height="23.175781" viewBox="0 0 29.5645 23.1758" fill="none" xmlns="http://www.w3.org/2000/svg" xmlns:xlink="http://www.w3.org/1999/xlink">
	<desc>
			Created with Pixso.
	</desc>
	<defs/>
	<path id="Shape1" d="M14.075 10.8574L14.3293 10.7891C16.2253 10.2344 18.0852 9.57031 19.8989 8.79883C21.7388 8.0957 23.4651 7.13672 25.0247 5.95312C26.6804 4.66992 27.9268 2.95312 28.6174 1.00391C28.7664 0.683594 28.8755 0.345703 28.9429 0C26.4512 3.31641 16.5725 3.66406 16.5725 3.66406L18.9045 1.58008C12.1179 1.60352 5.5083 3.69336 0 7.55859C3.73071 7.94727 7.23999 9.47656 10.0264 11.9258C11.364 11.5215 12.7314 11.2324 14.075 10.8691L14.075 10.8574ZM29.5645 10.5293C23.2791 10.2441 16.991 11.0254 10.9792 12.8359C12.2422 14.1211 13.2959 15.5859 14.1045 17.1816C19.0823 14.4805 25.9834 11.0312 29.5645 10.541L29.5645 10.5293ZM14.7319 18.5605C15.3223 20.041 15.7007 21.5938 15.8564 23.1758L24.5393 14.4805L14.7319 18.5605ZM19.2893 22.8223L19.2893 22.7305C19.2878 22.6934 19.2756 22.6582 19.2539 22.627C19.2341 22.5977 19.2007 22.5801 19.165 22.5801L19.2419 22.5801C19.2893 22.5508 19.3162 22.498 19.313 22.4414C19.3213 22.3672 19.2778 22.2969 19.2065 22.2695C19.146 22.2578 19.0835 22.2578 19.0229 22.2695L18.7803 22.2695L18.7803 22.9219L18.9106 22.9219L18.9106 22.6855L19.0051 22.6855C19.0461 22.6758 19.0886 22.6758 19.1296 22.6855C19.1699 22.7168 19.1902 22.7676 19.1829 22.8164L19.1829 22.916L19.313 22.916L19.2893 22.8223ZM18.9045 22.3145L18.9875 22.3145C19.0322 22.3047 19.0789 22.3047 19.1235 22.3145C19.1497 22.334 19.1633 22.3652 19.1592 22.3965C19.1643 22.4375 19.1396 22.4746 19.0999 22.4883C19.0647 22.4941 19.0288 22.4941 18.9934 22.4883L18.9045 22.4883L18.9045 22.2695L18.9045 22.3145Z" fill="#282828" fill-opacity="1.000000" fill-rule="evenodd"/>
</svg>
